<svg xmlns="http://www.w3.org/2000/svg" class="editor-view__logo-preview" data-v-04588dbe="" data-v-0a059b40="" width="319.1820068359375" height="54" viewBox="0 0 319.1820068359375 54"><svg id="mark" viewBox="0 0 144 144" width="54" height="54" x="265.1820068359375" y="0" data-v-04588dbe="" style="fill: rgb(255, 255, 255);"><rect x="0" y="0" width="100%" height="100%" fill="none" data-v-04588dbe=""></rect><g data-v-04588dbe=""><g xmlns="http://www.w3.org/2000/svg"><line fill="none" stroke="#000000" stroke-width="8" stroke-linecap="round" stroke-miterlimit="10" x1="26.89" y1="37.505" x2="108.329" y2="16.034"></line><line fill="none" stroke="#000000" stroke-width="8" stroke-linecap="round" stroke-miterlimit="10" x1="108.329" y1="17.158" x2="126.376" y2="126.299"></line><line fill="none" stroke="#000000" stroke-width="8" stroke-linecap="round" stroke-miterlimit="10" x1="126.376" y1="127.391" x2="25.764" y2="105.985"></line><line fill="none" stroke="#000000" stroke-width="8" stroke-linecap="round" stroke-miterlimit="10" x1="24.311" y1="105.397" x2="27.217" y2="38.476"></line></g><g xmlns="http://www.w3.org/2000/svg"><g><rect x="110.198" y="109.037" stroke="#000000" stroke-width="2" stroke-linejoin="bevel" stroke-miterlimit="10" width="27.84" height="26.674"></rect><rect x="115.967" y="113.892" stroke="#000000" stroke-width="2" stroke-linejoin="bevel" stroke-miterlimit="10" width="17.306" height="16.052"></rect></g><g><rect x="94.409" y="3.821" stroke="#000000" stroke-width="2" stroke-linejoin="bevel" stroke-miterlimit="10" width="27.84" height="26.674"></rect><rect x="100.178" y="8.675" stroke="#000000" stroke-width="2" stroke-linejoin="bevel" stroke-miterlimit="10" width="17.306" height="16.052"></rect></g><g><rect x="13.297" y="92.061" stroke="#000000" stroke-width="2" stroke-linejoin="bevel" stroke-miterlimit="10" width="27.84" height="26.674"></rect><rect x="19.065" y="96.915" stroke="#000000" stroke-width="2" stroke-linejoin="bevel" stroke-miterlimit="10" width="17.306" height="16.052"></rect></g><g><rect x="12.97" y="25.139" stroke="#000000" stroke-width="2" stroke-linejoin="bevel" stroke-miterlimit="10" width="27.84" height="26.674"></rect><rect x="18.738" y="29.994" stroke="#000000" stroke-width="2" stroke-linejoin="bevel" stroke-miterlimit="10" width="17.306" height="16.052"></rect></g></g></g></svg><svg id="name" viewBox="0 0 249.1820068359375 43.2400016784668" width="249.182" height="43.240000492241705" x="0" y="5.379997253417969" data-v-04588dbe="" style="fill: rgb(255, 255, 255);"><rect x="0" y="0" width="100%" height="100%" fill="none" data-v-04588dbe=""></rect><g data-v-04588dbe=""><path xmlns="http://www.w3.org/2000/svg" d="M6.16 33.12L0 33.12L11.78 0.92L18.40 0.92L30.18 33.12L23.92 33.12L21.34 25.67L8.79 25.67L6.16 33.12ZM15.04 7.68L10.40 21.07L19.73 21.07L15.04 7.68ZM40.07 33.12L34.18 33.12L34.18 10.30L39.38 10.30L39.84 14.17Q40.89 12.14 42.90 10.95Q44.90 9.75 47.61 9.75L47.61 9.75Q51.84 9.75 54.19 12.42Q56.53 15.09 56.53 20.24L56.53 20.24L56.53 33.12L50.65 33.12L50.65 20.79Q50.65 17.85 49.45 16.28Q48.25 14.72 45.72 14.72L45.72 14.72Q43.24 14.72 41.65 16.47Q40.07 18.22 40.07 21.34L40.07 21.34L40.07 33.12ZM65.32 6.76L65.32 6.76Q63.71 6.76 62.68 5.80Q61.64 4.83 61.64 3.36L61.64 3.36Q61.64 1.89 62.68 0.94Q63.71 0 65.32 0L65.32 0Q66.93 0 67.97 0.94Q69 1.89 69 3.36L69 3.36Q69 4.83 67.97 5.80Q66.93 6.76 65.32 6.76ZM68.26 33.12L62.38 33.12L62.38 10.30L68.26 10.30L68.26 33.12ZM80.32 33.12L74.43 33.12L74.43 10.30L79.63 10.30L80.13 13.39Q81.24 11.73 83.05 10.74Q84.87 9.75 87.26 9.75L87.26 9.75Q92.55 9.75 94.76 13.85L94.76 13.85Q96.00 11.96 98.09 10.86Q100.19 9.75 102.67 9.75L102.67 9.75Q107.13 9.75 109.53 12.42Q111.92 15.09 111.92 20.24L111.92 20.24L111.92 33.12L106.03 33.12L106.03 20.79Q106.03 17.85 104.90 16.28Q103.78 14.72 101.43 14.72L101.43 14.72Q99.04 14.72 97.59 16.47Q96.14 18.22 96.14 21.34L96.14 21.34L96.14 33.12L90.25 33.12L90.25 20.79Q90.25 17.85 89.10 16.28Q87.95 14.72 85.56 14.72L85.56 14.72Q83.21 14.72 81.77 16.47Q80.32 18.22 80.32 21.34L80.32 21.34L80.32 33.12ZM128.62 33.67L128.62 33.67Q125.17 33.67 122.50 32.20Q119.83 30.73 118.31 28.06Q116.79 25.39 116.79 21.90L116.79 21.90Q116.79 18.35 118.29 15.59Q119.78 12.83 122.43 11.29Q125.07 9.75 128.66 9.75L128.66 9.75Q132.02 9.75 134.60 11.22Q137.17 12.70 138.62 15.25Q140.07 17.80 140.07 20.93L140.07 20.93Q140.07 21.44 140.05 21.99Q140.02 22.54 139.98 23.14L139.98 23.14L122.64 23.14Q122.82 25.81 124.50 27.32Q126.18 28.84 128.57 28.84L128.57 28.84Q130.36 28.84 131.58 28.04Q132.80 27.23 133.40 25.94L133.40 25.94L139.38 25.94Q138.74 28.11 137.24 29.88Q135.75 31.65 133.56 32.66Q131.38 33.67 128.62 33.67ZM128.66 14.54L128.66 14.54Q126.50 14.54 124.84 15.75Q123.19 16.97 122.73 19.46L122.73 19.46L134.09 19.46Q133.95 17.20 132.43 15.87Q130.92 14.54 128.66 14.54ZM169.60 33.12L162.66 33.12L154.15 0.92L160.45 0.92L166.24 26.54L173.05 0.92L179.54 0.92L186.16 26.54L191.96 0.92L198.31 0.92L189.57 33.12L182.57 33.12L176.18 9.25L169.60 33.12ZM207.69 33.67L207.69 33.67Q204.75 33.67 202.86 32.73Q200.97 31.79 200.05 30.22Q199.13 28.66 199.13 26.77L199.13 26.77Q199.13 23.60 201.62 21.62Q204.10 19.64 209.07 19.64L209.07 19.64L214.87 19.64L214.87 19.09Q214.87 16.74 213.53 15.64Q212.20 14.54 210.22 14.54L210.22 14.54Q208.43 14.54 207.09 15.39Q205.76 16.24 205.44 17.89L205.44 17.89L199.69 17.89Q199.92 15.41 201.37 13.57Q202.81 11.73 205.11 10.74Q207.41 9.75 210.27 9.75L210.27 9.75Q215.14 9.75 217.95 12.19Q220.75 14.63 220.75 19.09L220.75 19.09L220.75 33.12L215.74 33.12L215.19 29.44Q214.18 31.28 212.36 32.48Q210.54 33.67 207.69 33.67ZM209.02 29.07L209.02 29.07Q211.55 29.07 212.96 27.42Q214.36 25.76 214.73 23.32L214.73 23.32L209.71 23.32Q207.37 23.32 206.36 24.17Q205.34 25.02 205.34 26.27L205.34 26.27Q205.34 27.60 206.36 28.34Q207.37 29.07 209.02 29.07ZM234.69 43.24L228.44 43.24L233.73 31.60L232.35 31.60L223.47 10.30L229.86 10.30L236.26 26.36L242.93 10.30L249.18 10.30L234.69 43.24Z"></path></g></svg><svg id="slogan" viewBox="0 0 0 0" width="0" height="NaN" x="0" y="52.62000274658203" data-v-04588dbe="" style="fill: rgb(0, 0, 0);"><rect x="0" y="0" width="100%" height="100%" fill="none" data-v-04588dbe=""></rect><g data-v-04588dbe=""><path xmlns="http://www.w3.org/2000/svg" d=""></path></g></svg></svg>